# xmcd
#
# Track frame offsets:
#	150
#	18355
#	33500
#	52472
#	72695
#	90780
#	105127
#	121022
#	139352
#	152810
#	168460
#
# Disc length: 2540 seconds
#
# Revision: 1
# Processed by: cddbd v1.5.1PL0 Copyright (c) Steve Scherf et al.
# Submitted via: EasyCDDAExtractor 7.0.6.1
#
DISCID=8f09ea0b
DTITLE=Steve Gibson - Steve Gibson Space Cowboy
DYEAR=1900
DGENRE=Country
TTITLE0=Space Cowboy
TTITLE1=Down He Goes
TTITLE2=The Night Falls
TTITLE3=Ride That Trail
TTITLE4=The Harder It Gets
TTITLE5=Wildcat Boogie
TTITLE6=The Quick and The Dead
TTITLE7=Between Hear And My Heart
TTITLE8=I'll Get It Right
TTITLE9=Crazy Ride
TTITLE10=Dance With A Cowboy
EXTD=
EXTT0=
EXTT1=
EXTT2=
EXTT3=
EXTT4=
EXTT5=
EXTT6=
EXTT7=
EXTT8=
EXTT9=
EXTT10=
PLAYORDER=
